<?xml version="1.0" encoding="UTF-8"?>
<svg id="Layer_2" data-name="Layer 2" xmlns="http://www.w3.org/2000/svg" viewBox="0 0 1399.57 328.78">
  <defs>
    <style>
      .cls-1 {
        fill: #fff;
      }
    </style>
  </defs>
  <g id="Layer_1-2" data-name="Layer 1">
    <polygon class="cls-1" points="1238.04 152.43 1173.68 194.48 1137.55 139.09 1235.08 75.36 1315.35 119.46 1337.3 57.87 1399.57 80.03 1364.55 178.46 1317.29 195.96 1238.04 152.43"/>
    <path class="cls-1" d="M469.9,202.45l-44.21-97.87-21.97,97.24c-1.02,4.51-5.91,6.23-9.87,5.48-3.66-.69-7.11-4.68-6.03-9.54l29.24-132.39c.48-2.18,2.88-3.97,4.68-4.01s3.95,1.59,4.87,3.62l47.35,105.15,48.16-106.76c.81-1.79,3.04-3.33,4.53-3.37,1.87-.05,4.46,1.7,4.96,4.02l29.37,134.27c1.05,4.79-3.09,8.43-6.39,9.07-4.64.9-9.19-1.32-10.27-6.28l-21.54-98.36-44.05,99.08c-.61,1.36-3,3.12-4.25,3.14s-3.32-1.25-4.57-2.48Z"/>
    <path class="cls-1" d="M352.34,129.78c0,44.83-36.34,81.16-81.16,81.16s-81.16-36.34-81.16-81.16,36.34-81.16,81.16-81.16,81.16,36.34,81.16,81.16ZM334.29,129.8c0-34.9-28.29-63.19-63.19-63.19s-63.19,28.29-63.19,63.19,28.29,63.19,63.19,63.19,63.19-28.29,63.19-63.19Z"/>
    <path class="cls-1" d="M17.14,197.77c0,5.91-2.8,9.37-7.9,9.93C5.58,208.11,0,205.46,0,200.28V68.42c0-2.93,3.15-5.52,5.12-6.09,2.51-.73,6.32-.3,8.37,1.82l104.62,107.44.09-108.09c0-5.49,4.06-8.61,8.42-8.63,5.45-.03,8.55,3.7,8.55,9.55v127.82c-.01,3.38-1.58,6.3-3.95,7.68s-6.7,1.66-9.06-.74L17.25,92.44l-.11,105.34Z"/>
    <path class="cls-1" d="M899.92,118.47c6.89,46.3-27.39,89.11-72.2,89.17l-32.97.05c-5.77,0-9.61-4.65-9.61-10.48l.03-132.75c0-5.97,4.64-9.56,9.88-9.55l28.12.05c39.06.07,70.96,24.62,76.75,63.51ZM883.07,128.8c-.91-28.95-20.91-51.22-49.19-55.42-10.43-1.55-20.91-1.49-31.56-1.31v118.05s28.67-.7,28.67-.7c31.21-3.58,53.07-28.94,52.08-60.62Z"/>
    <path class="cls-1" d="M698.14,162.04l-61.54-.14-17.72,40.08c-1.93,4.36-5.79,6.52-10.22,5.27-4-1.13-7.38-5.96-5.24-10.88l59.41-136.25c.77-1.75,3.3-3.16,4.82-3.1,1.38.06,3.53,1.78,4.36,3.66l59.67,135.91c2.02,4.59-1.09,9.12-5.03,10.62s-8.95-.04-10.89-4.53l-17.61-40.63ZM690.52,144.74l-23.18-52.93-23.33,53.1,46.51-.17Z"/>
    <path class="cls-1" d="M1031.33,162.03l-61.53-.11-18.1,40.89c-1.9,4.28-6.68,5.77-10.7,4.12-3.28-1.35-6.36-5.93-4.42-10.38l58.79-134.85c.81-1.86,2.96-3.57,4.35-3.76,1.7-.23,4.83,1.19,5.72,3.22l59.73,136.08c1.87,4.25-2.08,8.74-4.76,9.71-4.37,1.59-8.84.22-11.2-3.71l-17.88-41.22ZM1023.9,145.04l-23.38-53.27-23.5,53.44,46.88-.17Z"/>
    <path class="cls-1" d="M953.55,295.78l-6.61,28.59c-.3,1.32-2.69,3.02-4.14,2.83-1.66-.21-3.27-2.59-3.04-4.44l9.21-41.67c.72-1.05,1.87-2.36,2.72-2.76s3.01,1.12,3.41,2l14,30.99,14.42-31.71c.41-.5,2.51-2.47,3.15-1.93l2.69,2.28,9.33,42.73c-.11,1.66-1.15,3.95-2.36,4.37-1.76.62-4.6-.98-4.99-2.74l-6.5-29.32-12.61,28.18c-.39.87-1.97,2.51-2.72,2.3-.94-.26-2.51-1.3-3.32-2.02l-12.65-27.69Z"/>
    <path class="cls-1" d="M1066.79,301.1c0,15.29-12.39,27.68-27.68,27.68s-27.68-12.39-27.68-27.68,12.39-27.68,27.68-27.68,27.68,12.39,27.68,27.68ZM1058.9,301.08c0-10.93-8.86-19.8-19.8-19.8s-19.8,8.86-19.8,19.8,8.86,19.8,19.8,19.8,19.8-8.86,19.8-19.8Z"/>
    <path class="cls-1" d="M918.74,325.89l-13.52-20.35-.57,18.38c-.05,1.72-2.71,3.48-4.01,3.31-1.84-.23-3.55-2.66-3.54-4.83l.18-46.87c7.13-1.01,13.63-1.06,19.98.67,5.94,1.62,8.57,7.39,8.77,13.04.26,7.83-3.8,13.82-12.35,15.24l10.79,16.61c.83,1.27.41,4.39-.61,5.31s-4.3.68-5.1-.52ZM916.41,295.13c2.7-2.42,2.5-8.99-.17-10.74-3.11-2.03-7.29-2.07-11.42-2.06v14.89c4.04.27,8.65.54,11.58-2.09Z"/>
    <path class="cls-1" d="M292.15,16.65h-41.99c-5.08.02-8.73-2.32-9.44-7.31C240.17,5.44,242.8-.02,248.14,0l46.96.14c4.95.01,6.88,6.13,6.31,9.55-.74,4.49-4.31,6.96-9.26,6.96Z"/>
    <path class="cls-1" d="M785.09,312.35l-19.15-.05-5.74,12.85c-.54,1.22-3.33,2.24-4.41,1.92-1.29-.38-2.47-2.75-2.49-4.56l19.12-43.91c.86-.84,2.28-2.01,3.17-2.03s2.26,1.44,2.95,2.34l18.65,42.45c.69,1.76.12,4.66-1.18,5.36-1.55.84-4.9-.11-5.48-1.48l-5.46-12.89ZM781.6,304.51l-6.14-13.81-6.25,13.95,12.39-.13Z"/>
    <path class="cls-1" d="M876.8,302.29l-16.98.03v17.56s16.42-.07,16.42-.07c1.35,0,3.6,1.8,3.8,3.11.27,1.73-1.84,4.5-3.7,4.46l-23.77-.49-.13-48.55c0-1.52,2.33-3.49,3.71-3.48l20.01.02c1.38,0,3.54,1.87,3.76,3.17.29,1.73-1.83,4.37-3.47,4.37l-16.69-.04.2,12.76,17.24.05c1.18,0,2.82,2.52,2.83,3.62s-1.86,3.49-3.22,3.49Z"/>
    <path class="cls-1" d="M725.19,305.08l-.07,18.39c0,1.95-2.53,4.07-4.39,3.73s-3.08-2.61-3.07-4.9l.19-46.94c7.06-.68,13.49-.97,19.47.77,6.39,1.86,9.21,8,9.05,14.19-.19,6.87-4.11,12.67-11.21,14.07l-9.96.69ZM735.47,296.13c4.19-2.23,4.28-9.55.73-11.96-2.86-1.94-7.34-1.93-11.03-1.89v15.42c3.22,0,7.4-.03,10.3-1.58Z"/>
    <path class="cls-1" d="M833.06,319.63c1.62.01,3.97,2.53,3.75,4.08-.24,1.67-2.73,3.82-4.37,3.77l-19.18-.56-.19-47.77c0-1.79,1.92-4.31,3.5-4.44,1.45-.12,3.99,2.34,3.99,3.84v40.99s12.49.08,12.49.08Z"/>
  </g>
</svg>